<?xml version="1.0" ?>
<svg xmlns="http://www.w3.org/2000/svg" xmlns:ev="http://www.w3.org/2001/xml-events" xmlns:xlink="http://www.w3.org/1999/xlink" baseProfile="tiny" height="540" version="1.2" width="540">
	<defs/>
	<rect fill="white" height="540" width="540" x="0" y="0"/>
	<line stroke="black" stroke-width="3" x1="0" x2="0" y1="0" y2="540"/>
	<line stroke="black" stroke-width="3" x1="0" x2="540" y1="0" y2="0"/>
	<line stroke="black" stroke-width="1" x1="60" x2="60" y1="0" y2="540"/>
	<line stroke="black" stroke-width="1" x1="0" x2="540" y1="60" y2="60"/>
	<line stroke="black" stroke-width="1" x1="120" x2="120" y1="0" y2="540"/>
	<line stroke="black" stroke-width="1" x1="0" x2="540" y1="120" y2="120"/>
	<line stroke="black" stroke-width="3" x1="180" x2="180" y1="0" y2="540"/>
	<line stroke="black" stroke-width="3" x1="0" x2="540" y1="180" y2="180"/>
	<line stroke="black" stroke-width="1" x1="240" x2="240" y1="0" y2="540"/>
	<line stroke="black" stroke-width="1" x1="0" x2="540" y1="240" y2="240"/>
	<line stroke="black" stroke-width="1" x1="300" x2="300" y1="0" y2="540"/>
	<line stroke="black" stroke-width="1" x1="0" x2="540" y1="300" y2="300"/>
	<line stroke="black" stroke-width="3" x1="360" x2="360" y1="0" y2="540"/>
	<line stroke="black" stroke-width="3" x1="0" x2="540" y1="360" y2="360"/>
	<line stroke="black" stroke-width="1" x1="420" x2="420" y1="0" y2="540"/>
	<line stroke="black" stroke-width="1" x1="0" x2="540" y1="420" y2="420"/>
	<line stroke="black" stroke-width="1" x1="480" x2="480" y1="0" y2="540"/>
	<line stroke="black" stroke-width="1" x1="0" x2="540" y1="480" y2="480"/>
	<line stroke="black" stroke-width="3" x1="540" x2="540" y1="0" y2="540"/>
	<line stroke="black" stroke-width="3" x1="0" x2="540" y1="540" y2="540"/>
	<text fill="black" font-family="monospace" font-size="56" font-weight="bold" text-anchor="middle" x="270.0" y="47.92">2</text>
	<text fill="black" font-family="monospace" font-size="56" font-weight="bold" text-anchor="middle" x="270.0" y="107.92">4</text>
	<text fill="black" font-family="monospace" font-size="56" font-weight="bold" text-anchor="middle" x="270.0" y="167.92000000000002">1</text>
	<text fill="black" font-family="monospace" font-size="56" font-weight="bold" text-anchor="middle" x="210.0" y="227.92000000000002">1</text>
	<text fill="black" font-family="monospace" font-size="56" font-weight="bold" text-anchor="middle" x="270.0" y="227.92000000000002">3</text>
	<text fill="black" font-family="monospace" font-size="56" font-weight="bold" text-anchor="middle" x="330.0" y="227.92000000000002">2</text>
	<text fill="black" font-family="monospace" font-size="56" font-weight="bold" text-anchor="middle" x="30.0" y="287.92">1</text>
	<text fill="black" font-family="monospace" font-size="56" font-weight="bold" text-anchor="middle" x="90.0" y="287.92">2</text>
	<text fill="black" font-family="monospace" font-size="56" font-weight="bold" text-anchor="middle" x="150.0" y="287.92">3</text>
	<text fill="black" font-family="monospace" font-size="56" font-weight="bold" text-anchor="middle" x="210.0" y="287.92">4</text>
	<text fill="black" font-family="monospace" font-size="56" font-weight="bold" text-anchor="middle" x="270.0" y="287.92">5</text>
	<text fill="black" font-family="monospace" font-size="56" font-weight="bold" text-anchor="middle" x="330.0" y="287.92">6</text>
	<text fill="black" font-family="monospace" font-size="56" font-weight="bold" text-anchor="middle" x="390.0" y="287.92">7</text>
	<text fill="black" font-family="monospace" font-size="56" font-weight="bold" text-anchor="middle" x="450.0" y="287.92">8</text>
	<text fill="black" font-family="monospace" font-size="56" font-weight="bold" text-anchor="middle" x="510.0" y="287.92">9</text>
	<text fill="black" font-family="monospace" font-size="56" font-weight="bold" text-anchor="middle" x="210.0" y="347.92">8</text>
	<text fill="black" font-family="monospace" font-size="56" font-weight="bold" text-anchor="middle" x="270.0" y="347.92">7</text>
	<text fill="black" font-family="monospace" font-size="56" font-weight="bold" text-anchor="middle" x="330.0" y="347.92">9</text>
	<text fill="black" font-family="monospace" font-size="56" font-weight="bold" text-anchor="middle" x="270.0" y="407.92">9</text>
	<text fill="black" font-family="monospace" font-size="56" font-weight="bold" text-anchor="middle" x="270.0" y="467.92">6</text>
	<text fill="black" font-family="monospace" font-size="56" font-weight="bold" text-anchor="middle" x="270.0" y="527.92">8</text>
</svg>